<?xml version="1.0" encoding="utf-8"?>
<!-- Generator: Adobe Illustrator 25.2.3, SVG Export Plug-In . SVG Version: 6.00 Build 0)  -->
<svg version="1.1" id="Layer_1" xmlns="http://www.w3.org/2000/svg" xmlns:xlink="http://www.w3.org/1999/xlink" x="0px" y="0px"
	 viewBox="0 0 300 200" style="enable-background:new 0 0 300 200;" xml:space="preserve">
<style type="text/css">
	.st0{fill:#D71475;}
	.st1{fill:#FFFFFF;}
</style>
<g>
	<g>
		<path class="st0" d="M99.84,131.05c-36.13,0-65.52-29.39-65.52-65.52C34.32,29.4,63.71,0,99.84,0l0.3,0
			c15.13,0,32.57,4.02,47.21,15.51l-17.81,25.14c-10.03-8.49-22.5-9.94-29.91-10.08C80.46,30.22,64.9,46.32,64.9,65.53
			c0,19.27,15.68,34.94,34.95,34.94c19.27,0,34.94-15.68,34.94-34.94h30.58C165.36,101.65,135.97,131.05,99.84,131.05z"/>
		<path class="st0" d="M134.95,66.92v64.13h29.81V69.38C164.76,69.38,151.18,65.06,134.95,66.92z"/>
	</g>
	<g>
		<path class="st1" d="M69.36,149.29l-2.7,2.56c-1.94-1.91-4.08-3.37-6.39-4.35c-2.32-0.99-4.57-1.48-6.77-1.48
			c-2.73,0-5.34,0.67-7.82,2.02c-2.48,1.34-4.39,3.17-5.75,5.47c-1.36,2.3-2.04,4.73-2.04,7.3c0,2.62,0.7,5.12,2.11,7.48
			c1.41,2.36,3.35,4.22,5.84,5.57c2.48,1.35,5.2,2.03,8.16,2.03c3.59,0,6.63-1.01,9.11-3.04c2.48-2.02,3.95-4.65,4.41-7.88H56.39
			v-3.37h15.04c-0.03,5.39-1.63,9.67-4.81,12.85c-3.17,3.17-7.41,4.75-12.73,4.75c-6.45,0-11.56-2.2-15.33-6.59
			c-2.89-3.38-4.34-7.3-4.34-11.74c0-3.3,0.83-6.38,2.49-9.22c1.66-2.85,3.94-5.08,6.83-6.68c2.89-1.61,6.17-2.41,9.82-2.41
			c2.96,0,5.74,0.53,8.35,1.6C64.34,145.22,66.88,146.94,69.36,149.29z"/>
		<path class="st1" d="M88.39,141.89c0.76,0,1.4,0.27,1.94,0.8c0.53,0.54,0.8,1.19,0.8,1.95c0,0.74-0.27,1.38-0.8,1.92
			c-0.54,0.54-1.18,0.81-1.94,0.81c-0.74,0-1.38-0.27-1.91-0.81c-0.53-0.54-0.8-1.18-0.8-1.92c0-0.76,0.27-1.41,0.8-1.95
			C87.01,142.16,87.65,141.89,88.39,141.89z M86.74,152.52h3.32v25.81h-3.32V152.52z"/>
		<path class="st1" d="M119.66,155.34l-2.14,2.21c-1.78-1.72-3.51-2.58-5.21-2.58c-1.08,0-2,0.35-2.77,1.07
			c-0.77,0.71-1.15,1.54-1.15,2.49c0,0.84,0.32,1.64,0.95,2.4c0.63,0.78,1.96,1.68,3.99,2.73c2.47,1.28,4.15,2.51,5.04,3.7
			c0.87,1.2,1.31,2.56,1.31,4.06c0,2.12-0.74,3.91-2.23,5.38c-1.49,1.47-3.35,2.2-5.58,2.2c-1.49,0-2.91-0.32-4.26-0.97
			c-1.35-0.65-2.47-1.54-3.36-2.68l2.09-2.37c1.7,1.91,3.5,2.87,5.4,2.87c1.33,0,2.47-0.42,3.4-1.28c0.94-0.85,1.4-1.86,1.4-3.01
			c0-0.95-0.31-1.8-0.93-2.54c-0.62-0.73-2.01-1.65-4.19-2.75c-2.33-1.2-3.91-2.39-4.75-3.56c-0.84-1.17-1.26-2.51-1.26-4.01
			c0-1.96,0.67-3.59,2.01-4.89c1.34-1.3,3.03-1.95,5.07-1.95C114.86,151.85,117.25,153.01,119.66,155.34z"/>
		<path class="st1" d="M132.48,152.52H136l8.87,19.88l8.61-19.88h3.53L137.54,200h-3.51l9.04-23.63L132.48,152.52z"/>
		<path class="st1" d="M184,155.34l-2.14,2.21c-1.77-1.72-3.51-2.58-5.21-2.58c-1.08,0-2,0.35-2.77,1.07
			c-0.77,0.71-1.15,1.54-1.15,2.49c0,0.84,0.32,1.64,0.95,2.4c0.64,0.78,1.97,1.68,3.99,2.73c2.47,1.28,4.15,2.51,5.04,3.7
			c0.87,1.2,1.3,2.56,1.3,4.06c0,2.12-0.75,3.91-2.23,5.38c-1.49,1.47-3.35,2.2-5.58,2.2c-1.49,0-2.91-0.32-4.27-0.97
			c-1.35-0.65-2.48-1.54-3.36-2.68l2.09-2.37c1.69,1.91,3.49,2.87,5.4,2.87c1.33,0,2.46-0.42,3.4-1.28c0.93-0.85,1.4-1.86,1.4-3.01
			c0-0.95-0.31-1.8-0.93-2.54c-0.61-0.73-2.01-1.65-4.18-2.75c-2.33-1.2-3.92-2.39-4.76-3.56c-0.84-1.17-1.26-2.51-1.26-4.01
			c0-1.96,0.67-3.59,2.01-4.89c1.34-1.3,3.03-1.95,5.07-1.95C179.2,151.85,181.59,153.01,184,155.34z"/>
		<path class="st1" d="M224.64,157.88l-2.63,1.64c-2.27-3.02-5.38-4.53-9.31-4.53c-3.14,0-5.75,1.01-7.83,3.03
			c-2.08,2.02-3.11,4.48-3.11,7.37c0,1.88,0.48,3.65,1.43,5.31c0.95,1.66,2.27,2.95,3.93,3.86c1.67,0.92,3.54,1.37,5.61,1.37
			c3.79,0,6.89-1.51,9.29-4.53l2.63,1.73c-1.23,1.86-2.89,3.3-4.97,4.33c-2.08,1.02-4.45,1.53-7.11,1.53
			c-4.08,0-7.46-1.29-10.15-3.89c-2.69-2.59-4.03-5.75-4.03-9.46c0-2.5,0.63-4.82,1.89-6.97c1.26-2.14,2.99-3.82,5.18-5.02
			c2.2-1.2,4.66-1.8,7.38-1.8c1.71,0,3.36,0.26,4.95,0.78c1.59,0.52,2.94,1.2,4.04,2.04C222.93,155.52,223.87,156.58,224.64,157.88z
			"/>
		<path class="st1" d="M252.96,151.85c3.98,0,7.27,1.44,9.89,4.32c2.38,2.62,3.56,5.73,3.56,9.32c0,3.6-1.26,6.75-3.77,9.45
			c-2.51,2.69-5.74,4.04-9.69,4.04c-3.96,0-7.19-1.35-9.71-4.04c-2.51-2.7-3.76-5.85-3.76-9.45c0-3.57,1.19-6.68,3.56-9.3
			C245.67,153.3,248.97,151.85,252.96,151.85z M252.95,155.11c-2.76,0-5.13,1.02-7.12,3.06c-1.98,2.04-2.98,4.51-2.98,7.4
			c0,1.87,0.45,3.6,1.35,5.22c0.91,1.61,2.13,2.86,3.67,3.74c1.54,0.87,3.23,1.31,5.07,1.31c1.84,0,3.53-0.44,5.07-1.31
			c1.54-0.88,2.76-2.13,3.67-3.74c0.91-1.61,1.36-3.35,1.36-5.22c0-2.89-1-5.36-2.99-7.4C258.06,156.12,255.69,155.11,252.95,155.11
			z"/>
	</g>
	<path class="st1" d="M200.13,131.05c-36.13,0-65.52-29.39-65.52-65.52C134.61,29.4,164,0,200.13,0l0.3,0
		c2.32,0.04,23.12,0.77,37.76,12.26l-18.88,24.05c-5.18-4.07-15.33-5.63-19.34-5.74c-19.2,0.08-34.79,15.73-34.79,34.94
		c0,19.27,15.68,34.95,34.95,34.95c19.27,0,34.94-15.68,34.94-34.95h30.58C265.65,101.65,236.26,131.05,200.13,131.05z"/>
	<path class="st1" d="M265.72,52.57h-61.08v29.81h58.6C263.24,82.38,267.57,68.8,265.72,52.57z"/>
</g>
</svg>
